# 3ds Max Wavefront OBJ Exporter v0.94b - (c)2007 guruware
# File Created: 22.02.2010 05:52:37

mtllib stool_OBJ.mtl

#
# object stool2
#

v  0.0000 0.8268 0.0000
v  0.3822 0.8268 0.0000
v  0.3531 0.8268 -0.1463
v  0.2703 0.8268 -0.2703
v  0.1463 0.8268 -0.3531
v  -0.0000 0.8268 -0.3822
v  -0.1463 0.8268 -0.3531
v  -0.2703 0.8268 -0.2703
v  -0.3531 0.8268 -0.1463
v  -0.3822 0.8268 0.0000
v  -0.3531 0.8268 0.1463
v  -0.2703 0.8268 0.2703
v  -0.1463 0.8268 0.3531
v  0.0000 0.8268 0.3822
v  0.1463 0.8268 0.3531
v  0.2703 0.8268 0.2703
v  0.3531 0.8268 0.1463
v  0.3603 0.8190 -0.1492
v  0.3900 0.8190 0.0000
v  0.2758 0.8190 -0.2758
v  0.1492 0.8190 -0.3603
v  -0.0000 0.8190 -0.3900
v  -0.1492 0.8190 -0.3603
v  -0.2758 0.8190 -0.2758
v  -0.3603 0.8190 -0.1492
v  -0.3900 0.8190 0.0000
v  -0.3603 0.8190 0.1492
v  -0.2758 0.8190 0.2758
v  -0.1492 0.8190 0.3603
v  0.0000 0.8190 0.3900
v  0.1492 0.8190 0.3603
v  0.2758 0.8190 0.2758
v  0.3603 0.8190 0.1492
v  0.3636 0.7839 -0.1506
v  0.3936 0.7839 0.0000
v  0.2783 0.7839 -0.2783
v  0.1506 0.7839 -0.3636
v  -0.0000 0.7839 -0.3936
v  -0.1506 0.7839 -0.3636
v  -0.2783 0.7839 -0.2783
v  -0.3636 0.7839 -0.1506
v  -0.3936 0.7839 0.0000
v  -0.3636 0.7839 0.1506
v  -0.2783 0.7839 0.2783
v  -0.1506 0.7839 0.3636
v  0.0000 0.7839 0.3936
v  0.1506 0.7839 0.3636
v  0.2783 0.7839 0.2783
v  0.3636 0.7839 0.1506
v  0.0000 0.7840 0.0000
v  -0.0624 -0.0000 -0.3900
v  -0.0441 -0.0077 -0.3465
v  -0.0441 0.7881 -0.2062
v  -0.0624 0.7958 -0.2497
v  -0.0000 -0.0108 -0.3285
v  -0.0000 0.7849 -0.1882
v  0.0441 -0.0077 -0.3465
v  0.0441 0.7881 -0.2062
v  0.0624 -0.0000 -0.3900
v  0.0624 0.7958 -0.2497
v  0.0441 0.0077 -0.4335
v  0.0441 0.8034 -0.2931
v  0.0000 0.0108 -0.4515
v  -0.0000 0.8066 -0.3111
v  -0.0441 0.0077 -0.4335
v  -0.0441 0.8034 -0.2931
v  -0.0000 -0.0000 -0.3900
v  -0.3065 -0.0000 0.2490
v  -0.2781 -0.0077 0.2115
v  -0.1565 0.7881 0.1413
v  -0.1850 0.7958 0.1789
v  -0.2845 -0.0108 0.1643
v  -0.1630 0.7849 0.0941
v  -0.3222 -0.0077 0.1351
v  -0.2007 0.7881 0.0649
v  -0.3689 -0.0000 0.1410
v  -0.2474 0.7958 0.0708
v  -0.3974 0.0077 0.1785
v  -0.2759 0.8034 0.1084
v  -0.3910 0.0108 0.2257
v  -0.2695 0.8066 0.1556
v  -0.3533 0.0077 0.2549
v  -0.2318 0.8034 0.1848
v  -0.3377 -0.0000 0.1950
v  0.3689 -0.0000 0.1410
v  0.3222 -0.0077 0.1351
v  0.2007 0.7881 0.0649
v  0.2474 0.7958 0.0708
v  0.2845 -0.0108 0.1643
v  0.1630 0.7849 0.0941
v  0.2781 -0.0077 0.2115
v  0.1565 0.7881 0.1413
v  0.3065 -0.0000 0.2490
v  0.1850 0.7958 0.1789
v  0.3533 0.0077 0.2549
v  0.2318 0.8034 0.1848
v  0.3910 0.0108 0.2257
v  0.2695 0.8066 0.1556
v  0.3974 0.0077 0.1785
v  0.2759 0.8034 0.1084
v  0.3377 -0.0000 0.1950
# 101 vertices

vn 0.0000 1.0000 0.0000
vn 0.6533 0.7071 -0.2706
vn 0.7071 0.7071 -0.0000
vn 0.5000 0.7071 -0.5000
vn 0.2706 0.7071 -0.6533
vn -0.0000 0.7071 -0.7071
vn 0.0000 0.7071 -0.7071
vn -0.2706 0.7071 -0.6533
vn -0.5000 0.7071 -0.5000
vn -0.6533 0.7071 -0.2706
vn -0.7071 0.7071 0.0000
vn -0.6533 0.7071 0.2706
vn -0.5000 0.7071 0.5000
vn -0.2706 0.7071 0.6533
vn -0.0000 0.7071 0.7071
vn 0.2706 0.7071 0.6533
vn 0.5000 0.7071 0.5000
vn 0.6533 0.7071 0.2706
vn 0.9191 0.1013 -0.3807
vn 0.9949 0.1013 -0.0000
vn 0.7035 0.1013 -0.7035
vn 0.3807 0.1013 -0.9191
vn -0.0000 0.1013 -0.9949
vn -0.3807 0.1013 -0.9191
vn -0.7035 0.1013 -0.7035
vn -0.9191 0.1013 -0.3807
vn -0.9949 0.1013 0.0000
vn -0.9191 0.1013 0.3807
vn -0.7035 0.1013 0.7035
vn -0.3807 0.1013 0.9191
vn 0.0000 0.1013 0.9949
vn 0.3807 0.1013 0.9191
vn 0.7035 0.1013 0.7035
vn 0.9191 0.1013 0.3807
vn -0.0001 -1.0000 0.0000
vn -0.0000 -1.0000 -0.0000
vn -0.0001 -1.0000 0.0001
vn -0.0000 -1.0000 0.0001
vn 0.0000 -1.0000 0.0001
vn 0.0001 -1.0000 0.0001
vn 0.0001 -1.0000 0.0000
vn 0.0001 -1.0000 -0.0000
vn 0.0001 -1.0000 -0.0001
vn 0.0000 -1.0000 -0.0001
vn -0.0000 -1.0000 -0.0001
vn -0.0001 -1.0000 -0.0001
vn -0.0001 -1.0000 -0.0000
vn -1.0000 -0.0000 0.0000
vn -0.7071 -0.1228 0.6964
vn -1.0000 -0.0000 -0.0000
vn -0.0000 -0.1736 0.9848
vn 0.7071 -0.1228 0.6964
vn 1.0000 -0.0000 0.0000
vn 0.7071 0.1228 -0.6964
vn 0.0000 0.1736 -0.9848
vn -0.7071 0.1228 -0.6964
vn 0.0000 -0.9848 -0.1736
vn -0.0000 -0.9848 -0.1736
vn 0.5000 -0.0000 0.8660
vn 0.9566 -0.1228 0.2642
vn 0.8529 -0.1736 -0.4924
vn 0.2495 -0.1228 -0.9606
vn -0.5000 -0.0000 -0.8660
vn -0.9566 0.1228 -0.2642
vn -0.8529 0.1736 0.4924
vn -0.2495 0.1228 0.9606
vn -0.1504 -0.9848 0.0868
vn 0.5000 -0.0000 -0.8660
vn -0.2495 -0.1228 -0.9606
vn -0.8529 -0.1736 -0.4924
vn -0.9566 -0.1228 0.2642
vn -0.5000 -0.0000 0.8660
vn 0.2495 0.1228 0.9606
vn 0.8529 0.1736 0.4924
vn 0.9566 0.1228 -0.2642
vn 0.1504 -0.9848 0.0868
# 76 vertex normals

vt 0.4980 0.5000 0.5000
vt 0.9066 0.5000 0.5000
vt 0.8755 0.6804 0.5000
vt 0.7870 0.8333 0.5000
vt 0.6544 0.9355 0.5000
vt 0.4980 0.9714 0.5000
vt 0.3416 0.9355 0.5000
vt 0.2090 0.8333 0.5000
vt 0.1204 0.6804 0.5000
vt 0.0893 0.5000 0.5000
vt 0.1204 0.3196 0.5000
vt 0.2090 0.1667 0.5000
vt 0.3416 0.0645 0.5000
vt 0.4980 0.0286 0.5000
vt 0.6544 0.0645 0.5000
vt 0.7870 0.1667 0.5000
vt 0.8755 0.3196 0.5000
vt 0.8832 0.6841 0.3335
vt 0.9150 0.5000 0.3335
vt 0.7928 0.8401 0.3335
vt 0.6576 0.9444 0.3335
vt 0.4980 0.9810 0.3335
vt 0.3384 0.9444 0.3335
vt 0.2031 0.8401 0.3335
vt 0.1127 0.6841 0.3335
vt 0.0810 0.5000 0.3335
vt 0.1127 0.3159 0.3335
vt 0.2031 0.1599 0.3335
vt 0.3384 0.0556 0.3335
vt 0.4980 0.0190 0.3335
vt 0.6576 0.0556 0.3335
vt 0.7928 0.1599 0.3335
vt 0.8832 0.3159 0.3335
vt 0.9140 0.6837 -0.4151
vt 0.9483 0.5000 -0.4151
vt 0.8327 0.8409 -0.4151
vt 0.7062 0.9460 -0.4151
vt 0.4980 0.9950 -0.4151
vt 0.2963 0.9460 -0.4151
vt 0.1632 0.8409 -0.4151
vt 0.0754 0.6837 -0.4151
vt 0.0477 0.5000 -0.4151
vt 0.0722 0.3163 -0.4151
vt 0.1600 0.1591 -0.4151
vt 0.2816 0.0559 -0.4151
vt 0.4980 0.0069 -0.4151
vt 0.7127 0.0559 -0.4151
vt 0.8360 0.1591 -0.4151
vt 0.9205 0.3163 -0.4151
vt 0.4980 0.5000 -0.5000
vt 0.9942 0.9224 1.0000
vt 0.9942 0.9566 1.0000
vt 0.0083 0.9566 1.0000
vt 0.0083 0.9224 1.0000
vt 0.9942 0.9907 1.0000
vt 0.0083 0.9907 1.0000
vt 0.9942 0.7176 1.0000
vt 0.9942 0.7517 1.0000
vt 0.0083 0.7517 1.0000
vt 0.0083 0.7175 1.0000
vt 0.9942 0.7858 1.0000
vt 0.0083 0.7858 1.0000
vt 0.9942 0.8200 1.0000
vt 0.0083 0.8200 1.0000
vt 0.9942 0.8541 1.0000
vt 0.0083 0.8541 1.0000
vt 0.9942 0.8883 1.0000
vt 0.0083 0.8883 1.0000
vt 0.3032 0.2417 -0.2500
vt 0.3388 0.1558 -0.2500
vt 0.2173 0.1558 -0.2500
vt 0.3032 0.0699 -0.2500
vt 0.2173 0.0344 -0.2500
vt 0.1315 0.0699 -0.2500
vt 0.0959 0.1558 -0.2500
vt 0.1315 0.2417 -0.2500
vt 0.2173 0.2773 -0.2500
vt 0.9944 0.9171 1.0000
vt 0.9944 0.9545 1.0000
vt 0.0165 0.9545 1.0000
vt 0.0165 0.9171 1.0000
vt 0.9944 0.9919 1.0000
vt 0.0165 0.9919 1.0000
vt 0.9944 0.6926 1.0000
vt 0.9944 0.7300 1.0000
vt 0.0165 0.7300 1.0000
vt 0.0165 0.6926 1.0000
vt 0.9944 0.7674 1.0000
vt 0.0165 0.7674 1.0000
vt 0.9944 0.8048 1.0000
vt 0.0165 0.8048 1.0000
vt 0.9944 0.8422 1.0000
vt 0.0165 0.8422 1.0000
vt 0.9944 0.8797 1.0000
vt 0.0165 0.8796 1.0000
vt 0.9956 0.2321 1.0000
vt 0.9956 0.2701 1.0000
vt 0.0065 0.2701 1.0000
vt 0.0065 0.2321 1.0000
vt 0.9956 0.3082 1.0000
vt 0.0065 0.3082 1.0000
vt 0.9956 0.0038 1.0000
vt 0.9956 0.0418 1.0000
vt 0.0065 0.0418 1.0000
vt 0.0065 0.0038 1.0000
vt 0.9956 0.0799 1.0000
vt 0.0065 0.0799 1.0000
vt 0.9956 0.1179 1.0000
vt 0.0065 0.1179 1.0000
vt 0.9956 0.1560 1.0000
vt 0.0065 0.1560 1.0000
vt 0.9956 0.1940 1.0000
vt 0.0065 0.1940 1.0000
vt 0.6629 0.9323 -0.2500
vt 0.6984 0.8465 -0.2500
vt 0.5770 0.8465 -0.2500
vt 0.6629 0.7606 -0.2500
vt 0.5770 0.7250 -0.2500
vt 0.4911 0.7606 -0.2500
vt 0.4556 0.8465 -0.2500
vt 0.4911 0.9323 -0.2500
vt 0.5770 0.9679 -0.2500
# 122 texture coords

g stool2
usemtl 01___Default
s 4
f 1/1/1 2/2/1 3/3/1 
f 1/1/1 3/3/1 4/4/1 
f 1/1/1 4/4/1 5/5/1 
f 1/1/1 5/5/1 6/6/1 
f 1/1/1 6/6/1 7/7/1 
f 1/1/1 7/7/1 8/8/1 
f 1/1/1 8/8/1 9/9/1 
f 1/1/1 9/9/1 10/10/1 
f 1/1/1 10/10/1 11/11/1 
f 1/1/1 11/11/1 12/12/1 
f 1/1/1 12/12/1 13/13/1 
f 1/1/1 13/13/1 14/14/1 
f 1/1/1 14/14/1 15/15/1 
f 1/1/1 15/15/1 16/16/1 
f 1/1/1 16/16/1 17/17/1 
f 1/1/1 17/17/1 2/2/1 
s 8
f 18/18/2 3/3/2 2/2/3 19/19/3 
f 20/20/4 4/4/4 3/3/2 18/18/2 
f 21/21/5 5/5/5 4/4/4 20/20/4 
f 22/22/6 6/6/7 5/5/5 21/21/5 
f 23/23/8 7/7/8 6/6/7 22/22/6 
f 24/24/9 8/8/9 7/7/8 23/23/8 
f 25/25/10 9/9/10 8/8/9 24/24/9 
f 26/26/11 10/10/11 9/9/10 25/25/10 
f 27/27/12 11/11/12 10/10/11 26/26/11 
f 28/28/13 12/12/13 11/11/12 27/27/12 
f 29/29/14 13/13/14 12/12/13 28/28/13 
f 30/30/15 14/14/15 13/13/14 29/29/14 
f 31/31/16 15/15/16 14/14/15 30/30/15 
f 32/32/17 16/16/17 15/15/16 31/31/16 
f 33/33/18 17/17/18 16/16/17 32/32/17 
f 19/19/3 2/2/3 17/17/18 33/33/18 
s 16
f 34/34/19 18/18/19 19/19/20 35/35/20 
f 36/36/21 20/20/21 18/18/19 34/34/19 
f 37/37/22 21/21/22 20/20/21 36/36/21 
f 38/38/23 22/22/23 21/21/22 37/37/22 
f 39/39/24 23/23/24 22/22/23 38/38/23 
f 40/40/25 24/24/25 23/23/24 39/39/24 
f 41/41/26 25/25/26 24/24/25 40/40/25 
f 42/42/27 26/26/27 25/25/26 41/41/26 
f 43/43/28 27/27/28 26/26/27 42/42/27 
f 44/44/29 28/28/29 27/27/28 43/43/28 
f 45/45/30 29/29/30 28/28/29 44/44/29 
f 46/46/31 30/30/31 29/29/30 45/45/30 
f 47/47/32 31/31/32 30/30/31 46/46/31 
f 48/48/33 32/32/33 31/31/32 47/47/32 
f 49/49/34 33/33/34 32/32/33 48/48/33 
f 35/35/20 19/19/20 33/33/34 49/49/34 
s 4
f 35/35/35 50/50/36 34/34/35 
f 34/34/35 50/50/36 36/36/37 
f 36/36/37 50/50/36 37/37/38 
f 37/37/38 50/50/36 38/38/39 
f 38/38/39 50/50/36 39/39/39 
f 39/39/39 50/50/36 40/40/40 
f 40/40/40 50/50/36 41/41/41 
f 41/41/41 50/50/36 42/42/42 
f 42/42/42 50/50/36 43/43/42 
f 43/43/42 50/50/36 44/44/43 
f 44/44/43 50/50/36 45/45/44 
f 45/45/44 50/50/36 46/46/45 
f 46/46/45 50/50/36 47/47/45 
f 47/47/45 50/50/36 48/48/46 
f 48/48/46 50/50/36 49/49/47 
f 49/49/47 50/50/36 35/35/35 
s 8
f 51/51/48 52/52/49 53/53/49 54/54/50 
f 52/52/49 55/55/51 56/56/51 53/53/49 
f 55/57/51 57/58/52 58/59/52 56/60/51 
f 57/58/52 59/61/53 60/62/53 58/59/52 
f 59/61/53 61/63/54 62/64/54 60/62/53 
f 61/63/54 63/65/55 64/66/55 62/64/54 
f 63/65/55 65/67/56 66/68/56 64/66/55 
f 65/67/56 51/51/48 54/54/50 66/68/56 
s 1
f 65/69/57 63/70/58 67/71/57 
f 63/70/58 61/72/58 67/71/57 
f 61/72/58 59/73/57 67/71/57 
f 59/73/57 57/74/57 67/71/57 
f 57/74/57 55/75/58 67/71/57 
f 55/75/58 52/76/58 67/71/57 
f 52/76/58 51/77/57 67/71/57 
f 51/77/57 65/69/57 67/71/57 
s 8
f 68/78/59 69/79/60 70/80/60 71/81/59 
f 69/79/60 72/82/61 73/83/61 70/80/60 
f 72/84/61 74/85/62 75/86/62 73/87/61 
f 74/85/62 76/88/63 77/89/63 75/86/62 
f 76/88/63 78/90/64 79/91/64 77/89/63 
f 78/90/64 80/92/65 81/93/65 79/91/64 
f 80/92/65 82/94/66 83/95/66 81/93/65 
f 82/94/66 68/78/59 71/81/59 83/95/66 
s 1
f 82/69/67 80/70/67 84/71/67 
f 80/70/67 78/72/67 84/71/67 
f 78/72/67 76/73/67 84/71/67 
f 76/73/67 74/74/67 84/71/67 
f 74/74/67 72/75/67 84/71/67 
f 72/75/67 69/76/67 84/71/67 
f 69/76/67 68/77/67 84/71/67 
f 68/77/67 82/69/67 84/71/67 
s 8
f 85/96/68 86/97/69 87/98/69 88/99/68 
f 86/97/69 89/100/70 90/101/70 87/98/69 
f 89/102/70 91/103/71 92/104/71 90/105/70 
f 91/103/71 93/106/72 94/107/72 92/104/71 
f 93/106/72 95/108/73 96/109/73 94/107/72 
f 95/108/73 97/110/74 98/111/74 96/109/73 
f 97/110/74 99/112/75 100/113/75 98/111/74 
f 99/112/75 85/96/68 88/99/68 100/113/75 
s 1
f 99/114/76 97/115/76 101/116/76 
f 97/115/76 95/117/76 101/116/76 
f 95/117/76 93/118/76 101/116/76 
f 93/118/76 91/119/76 101/116/76 
f 91/119/76 89/120/76 101/116/76 
f 89/120/76 86/121/76 101/116/76 
f 86/121/76 85/122/76 101/116/76 
f 85/122/76 99/114/76 101/116/76 
# 56 polygons - 56 triangles

